<svg width="17" height="18" fill="none" xmlns="http://www.w3.org/2000/svg"><g clip-path="url(#clip0_88_677)" fill="#FC413C"><path d="M8.5 17.477a8.656 8.656 0 01-5.497-1.957 8.466 8.466 0 01-1.002-.977A8.117 8.117 0 010 9.223C0 7.02.884 4.948 2.49 3.389 4.095 1.829 6.23.971 8.5.971c2.27 0 4.405.858 6.01 2.417C16.116 4.947 17 7.019 17 9.224a8.12 8.12 0 01-2 5.32c-.306.35-.644.68-1.004.976A8.656 8.656 0 018.5 17.477zm0-15.475c-4.101 0-7.438 3.24-7.438 7.222 0 1.702.622 3.355 1.75 4.654.268.308.564.595.879.855A7.573 7.573 0 008.5 16.445a7.573 7.573 0 004.809-1.712c.315-.26.61-.547.879-.855a7.101 7.101 0 001.75-4.654c0-3.982-3.337-7.222-7.438-7.222z"/><path d="M8.5 9.224c-1.758 0-3.188-1.388-3.188-3.095 0-1.706 1.43-3.095 3.188-3.095 1.758 0 3.188 1.389 3.188 3.095 0 1.707-1.43 3.095-3.188 3.095zm0-5.158c-1.172 0-2.125.925-2.125 2.063 0 1.138.953 2.063 2.125 2.063 1.172 0 2.125-.925 2.125-2.063 0-1.138-.953-2.063-2.125-2.063z"/><path d="M13.653 15.642a.553.553 0 01-.13-.015.515.515 0 01-.386-.626c.096-.37.144-.75.144-1.135 0-2.523-2.113-4.605-4.711-4.642h-.14c-2.598.037-4.711 2.119-4.711 4.642 0 .384.048.766.143 1.135a.515.515 0 01-.385.626.533.533 0 01-.645-.375A5.557 5.557 0 014.341 9.88a5.894 5.894 0 014.076-1.688h.166c1.543.02 2.991.62 4.076 1.688a5.558 5.558 0 011.509 5.37.529.529 0 01-.515.391z"/></g><defs><clipPath id="clip0_88_677"><path fill="#fff" transform="translate(0 .97)" d="M0 0h17v16.506H0z"/></clipPath></defs></svg>