<svg width="16" height="19" viewBox="0 0 16 19" fill="none" xmlns="http://www.w3.org/2000/svg">
<path d="M2.65949 17.3715C2.70628 18.2188 3.47765 18.8806 4.422 18.8806H11.5768C12.5211 18.8806 13.2926 18.2188 13.3393 17.3715L14.3699 6.7041H1.62891L2.65949 17.3715ZM9.76412 9.35116H10.9406V15.1747H9.76412V9.35116ZM7.41118 9.35116H8.58765V15.1747H7.41118V9.35116ZM5.05824 9.35116H6.23471V15.1747H5.05824V9.35116Z" fill="#1A467C"/>
<path d="M10.9408 3.52792V2.46909C10.9408 1.59338 10.1492 0.880859 9.17607 0.880859H6.82313C5.85011 0.880859 5.05842 1.59338 5.05842 2.46909V3.52792H0.352539V5.64557H15.6467V3.52792H10.9408ZM6.23489 3.52792V2.46909C6.23489 2.17718 6.49881 1.93968 6.82313 1.93968H9.17607C9.50046 1.93968 9.7643 2.17718 9.7643 2.46909V3.52792H6.23489Z" fill="#1A467C"/>
</svg>
