<svg width="40" height="42" viewBox="0 0 40 42" fill="none" xmlns="http://www.w3.org/2000/svg">
<path d="M11.6086 27.6538H34.7507C37.3748 27.6538 39.5155 25.5131 39.5155 22.889V13.1523C39.5155 13.1436 39.5155 13.1264 39.5155 13.1177C39.5155 13.0918 39.5155 13.0746 39.5155 13.0487C39.5155 13.0314 39.5155 13.0142 39.5069 12.9969C39.5069 12.9796 39.4982 12.9537 39.4982 12.9365C39.4982 12.9192 39.4896 12.9019 39.4896 12.8847C39.481 12.8674 39.481 12.8502 39.4723 12.8243C39.4637 12.807 39.4637 12.7897 39.4551 12.7725C39.4464 12.7552 39.4464 12.7379 39.4378 12.7207C39.4292 12.7034 39.4205 12.6862 39.4119 12.6603C39.4033 12.643 39.3946 12.6257 39.386 12.6171C39.3774 12.5998 39.3687 12.5826 39.3601 12.5653C39.3515 12.548 39.3428 12.5394 39.3342 12.5221C39.3256 12.5049 39.3083 12.4876 39.2997 12.4704C39.2911 12.4531 39.2824 12.4445 39.2652 12.4272C39.2565 12.4099 39.2393 12.4013 39.2306 12.384C39.222 12.3668 39.2047 12.3581 39.1961 12.3409C39.1875 12.3236 39.1702 12.315 39.1616 12.3063C39.1443 12.2891 39.1357 12.2805 39.1184 12.2632C39.1012 12.2546 39.0925 12.2373 39.0753 12.2287C39.058 12.22 39.0407 12.2028 39.0235 12.1941C39.0062 12.1855 38.9976 12.1769 38.9803 12.1682C38.963 12.1596 38.9458 12.151 38.9285 12.1337C38.9113 12.1251 38.894 12.1164 38.8767 12.1078C38.8595 12.0992 38.8422 12.0906 38.8249 12.0819C38.8077 12.0733 38.7904 12.0647 38.7731 12.056C38.7559 12.0474 38.7386 12.0474 38.7214 12.0388C38.7041 12.0301 38.6782 12.0215 38.6609 12.0215C38.6437 12.0215 38.6264 12.0129 38.6178 12.0129C38.5919 12.0042 38.5746 12.0042 38.5487 12.0042C38.5401 12.0042 38.5315 11.9956 38.5142 11.9956L9.18309 7.94725V3.85575C9.18309 3.81259 9.18309 3.76943 9.17446 3.7349C9.17446 3.72627 9.17446 3.71764 9.16583 3.70037C9.16583 3.67448 9.1572 3.64858 9.1572 3.62269C9.14856 3.59679 9.14856 3.57953 9.13993 3.55363C9.13993 3.53637 9.1313 3.52774 9.1313 3.51047C9.12267 3.48458 9.11404 3.45868 9.1054 3.43279C9.1054 3.42415 9.09677 3.40689 9.09677 3.39826C9.08814 3.37236 9.07951 3.3551 9.06224 3.3292C9.05361 3.32057 9.05361 3.30331 9.04498 3.29468C9.03635 3.27741 9.02772 3.26015 9.01045 3.24289C9.00182 3.22562 8.99319 3.21699 8.98456 3.19973C8.97593 3.18246 8.96729 3.17383 8.95866 3.15657C8.95003 3.1393 8.93277 3.12204 8.92414 3.10478C8.9155 3.09614 8.90687 3.08751 8.89824 3.07888C8.88098 3.06162 8.86371 3.04435 8.84645 3.02709C8.83782 3.01846 8.82918 3.00982 8.82055 3.00119C8.80329 2.98393 8.78602 2.96667 8.76013 2.9494C8.7515 2.94077 8.73423 2.93214 8.7256 2.92351C8.70834 2.90624 8.69107 2.89761 8.67381 2.88035C8.64792 2.86308 8.62202 2.84582 8.60476 2.83719C8.59612 2.82856 8.58749 2.82856 8.57886 2.81992C8.54433 2.80266 8.50117 2.7854 8.46665 2.76813L2.10496 0.0922531C1.50936 -0.158071 0.827441 0.118149 0.577116 0.713748C0.326792 1.30935 0.603012 1.99126 1.19861 2.24159L6.84385 4.62398V9.90669V10.744V17.1661V22.9063V30.1571C6.84385 32.574 8.65655 34.5766 10.9958 34.8787C10.5728 35.5865 10.3225 36.4152 10.3225 37.2956C10.3225 39.8938 12.4373 42 15.0269 42C17.6164 42 19.7312 39.8852 19.7312 37.2956C19.7312 36.4324 19.4982 35.6124 19.0838 34.9218H29.5629C29.1486 35.621 28.9155 36.4324 28.9155 37.2956C28.9155 39.8938 31.0304 42 33.6199 42C36.2095 42 38.3243 39.8852 38.3243 37.2956C38.3243 34.706 36.2095 32.5912 33.6199 32.5912H11.6086C10.2621 32.5912 9.17446 31.495 9.17446 30.1571V26.9978C9.88227 27.4121 10.7196 27.6538 11.6086 27.6538ZM17.4093 37.287C17.4093 38.599 16.3389 39.6607 15.0355 39.6607C13.7321 39.6607 12.6617 38.5904 12.6617 37.287C12.6617 35.9836 13.7321 34.9132 15.0355 34.9132C16.3389 34.9132 17.4093 35.9749 17.4093 37.287ZM36.0023 37.287C36.0023 38.599 34.932 39.6607 33.6285 39.6607C32.3251 39.6607 31.2548 38.5904 31.2548 37.287C31.2548 35.9836 32.3251 34.9132 33.6285 34.9132C34.932 34.9132 36.0023 35.9749 36.0023 37.287ZM34.7507 25.3232H11.6086C10.2621 25.3232 9.17446 24.227 9.17446 22.889V17.1488V10.7267V10.2951L37.1849 14.1536V22.8804C37.1849 24.2356 36.0886 25.3232 34.7507 25.3232Z" fill="#595959"/>
</svg>
