<svg width="21" height="16" viewBox="0 0 21 16" fill="none" xmlns="http://www.w3.org/2000/svg">
<path d="M20.2408 10.1256C20.2408 8.33697 18.9888 6.77631 17.1248 5.93164C17.2348 6.32164 17.2981 6.72431 17.3094 7.13764C17.4954 7.24831 17.6754 7.36764 17.8434 7.49764C18.7834 8.22297 19.3021 9.15564 19.3021 10.1256C19.3021 11.095 18.7854 12.0283 17.8434 12.7523C16.8121 13.5476 15.4254 13.9863 13.9394 13.9863C12.9374 13.9863 11.9808 13.7863 11.1474 13.4136C10.6301 13.5156 10.0921 13.5803 9.53809 13.603C10.6748 14.457 12.2268 14.9843 13.9394 14.9843C15.0388 14.9843 16.0721 14.7683 16.9714 14.3863L19.2654 15.557L18.8021 13.2163C19.7001 12.3763 20.2408 11.2996 20.2408 10.1256Z" fill="#6E6E6E"/>
<path d="M16.6572 6.48377C16.6445 6.0711 16.5825 5.66777 16.4732 5.27843C15.6725 2.4291 12.3845 0.294434 8.45054 0.294434C3.91654 0.2951 0.241211 3.12977 0.241211 6.62643C0.241211 8.15643 0.944544 9.55843 2.11588 10.6538L1.51188 13.7018L4.50054 12.1771C5.67254 12.6744 7.01854 12.9584 8.45054 12.9584C8.59654 12.9584 8.74188 12.9544 8.88588 12.9491C9.43854 12.9271 9.97721 12.8618 10.4959 12.7591C14.0399 12.0584 16.6599 9.57843 16.6599 6.62643C16.6592 6.5791 16.6585 6.53177 16.6572 6.48377ZM13.5379 10.0504C12.2932 11.0091 10.6512 11.5704 8.87588 11.6478C8.73521 11.6551 8.59321 11.6584 8.44988 11.6584C8.17521 11.6584 7.90388 11.6464 7.63521 11.6231C6.00988 11.4871 4.51588 10.9411 3.36321 10.0518C2.13854 9.1071 1.46388 7.8911 1.46388 6.62777C1.46388 5.36443 2.13854 4.14843 3.36321 3.20377C4.70654 2.16777 6.51321 1.5971 8.44988 1.5971C10.3872 1.5971 12.1945 2.16777 13.5365 3.20377C14.1445 3.67243 14.6159 4.20777 14.9385 4.78243C15.1425 5.1471 15.2859 5.52777 15.3652 5.9171C15.4125 6.1511 15.4365 6.38843 15.4365 6.6271C15.4365 7.88977 14.7625 9.10577 13.5379 10.0504Z" fill="#6E6E6E"/>
<path d="M11.3619 7.54356C11.8578 7.54356 12.2599 7.14151 12.2599 6.64556C12.2599 6.14961 11.8578 5.74756 11.3619 5.74756C10.8659 5.74756 10.4639 6.14961 10.4639 6.64556C10.4639 7.14151 10.8659 7.54356 11.3619 7.54356Z" fill="#6E6E6E"/>
<path d="M8.45073 7.54356C8.94669 7.54356 9.34873 7.14151 9.34873 6.64556C9.34873 6.14961 8.94669 5.74756 8.45073 5.74756C7.95478 5.74756 7.55273 6.14961 7.55273 6.64556C7.55273 7.14151 7.95478 7.54356 8.45073 7.54356Z" fill="#6E6E6E"/>
<path d="M5.53831 7.5444C6.03463 7.5444 6.43698 7.14206 6.43698 6.64574C6.43698 6.14942 6.03463 5.74707 5.53831 5.74707C5.042 5.74707 4.63965 6.14942 4.63965 6.64574C4.63965 7.14206 5.042 7.5444 5.53831 7.5444Z" fill="#6E6E6E"/>
</svg>
