<svg width="21" height="17" viewBox="0 0 21 17" fill="none" xmlns="http://www.w3.org/2000/svg">
<path d="M14.9897 0.203268C13.3214 0.194352 11.7353 0.927074 10.6606 2.20324C9.59267 0.918351 8.00221 0.183546 6.3315 0.203268C3.19956 0.203268 0.660645 2.74219 0.660645 5.87412C0.660645 11.2412 10.0277 16.4817 10.4075 16.6843C10.5607 16.7866 10.7605 16.7866 10.9138 16.6843C11.2936 16.4817 20.6606 11.3172 20.6606 5.87412C20.6606 2.74219 18.1217 0.203268 14.9897 0.203268ZM10.6606 15.6716C9.19227 14.8109 1.6733 10.2286 1.6733 5.87412C1.6733 3.30148 3.75886 1.21588 6.33155 1.21588C7.90699 1.19519 9.38135 1.98984 10.2303 3.31713C10.4026 3.55481 10.7351 3.60778 10.9728 3.43537C11.0182 3.40242 11.0581 3.36254 11.091 3.31713C12.4989 1.16393 15.3858 0.559768 17.539 1.96769C18.8572 2.8296 19.6506 4.29917 19.6479 5.87407C19.648 10.2792 12.129 14.8361 10.6606 15.6716Z" fill="#999999"/>
</svg>
