<svg width="25" height="25" viewBox="0 0 25 25" fill="none" xmlns="http://www.w3.org/2000/svg">
<g clip-path="url(#clip0_88_1759)">
<path d="M12.5007 0.214355C9.05385 0.214355 6.25073 2.90536 6.25073 6.21436C6.25073 9.52336 9.05385 12.2144 12.5007 12.2144C15.9476 12.2144 18.7507 9.52336 18.7507 6.21436C18.7507 2.90536 15.9476 0.214355 12.5007 0.214355ZM12.5007 10.7144C9.91635 10.7144 7.81323 8.69536 7.81323 6.21436C7.81323 3.73336 9.91635 1.71436 12.5007 1.71436C15.0851 1.71436 17.1882 3.73336 17.1882 6.21436C17.1882 8.69536 15.0851 10.7144 12.5007 10.7144Z" fill="#6E6E6E"/>
<path d="M18.6102 23.0336L13.1415 15.5336C12.8508 15.1346 12.1555 15.1346 11.8618 15.5336L6.39303 23.0336C6.14616 23.3726 6.23053 23.8406 6.58522 24.0776C6.93834 24.3161 7.42584 24.2336 7.67272 23.8946L12.5008 17.2721L17.3305 23.8946C17.4821 24.1031 17.7243 24.2141 17.9696 24.2141C18.1258 24.2141 18.2805 24.1706 18.4196 24.0776C18.7727 23.8406 18.8587 23.3741 18.6102 23.0336Z" fill="#6E6E6E"/>
<path d="M20.2335 12.5773C19.9289 12.2848 19.4335 12.2848 19.1289 12.5773C15.471 16.0873 9.52573 16.0873 5.87105 12.5773C5.56636 12.2848 5.07104 12.2848 4.76636 12.5773C4.46167 12.8698 4.46167 13.3453 4.76636 13.6378C6.89917 15.6838 9.70073 16.7083 12.5007 16.7083C15.3007 16.7083 18.1023 15.6838 20.2335 13.6378C20.5382 13.3453 20.5382 12.8698 20.2335 12.5773Z" fill="#6E6E6E"/>
</g>
<defs>
<clipPath id="clip0_88_1759">
<rect width="25" height="24" fill="white" transform="translate(0 0.214355)"/>
</clipPath>
</defs>
</svg>
