<svg width="26" height="22" viewBox="0 0 26 22" fill="none" xmlns="http://www.w3.org/2000/svg">
<path d="M25.487 1.26266C25.1817 0.889206 24.7243 0.683594 24.199 0.683594C23.9135 0.683594 23.611 0.743675 23.3001 0.862503L2.13804 8.9407C1.01499 9.36928 0.86374 10.0124 0.873468 10.3577C0.883195 10.7029 1.07069 11.3365 2.21624 11.701C2.22311 11.7031 2.22997 11.7052 2.23684 11.7071L6.62641 12.9633L9.0003 19.7515C9.32397 20.677 10.0505 21.2519 10.8966 21.2519C11.4301 21.2519 11.9548 21.0283 12.4141 20.6057L15.1292 18.1057L19.0673 21.2767C19.0677 21.277 19.0682 21.2772 19.0686 21.2776L19.106 21.3078C19.1094 21.3104 19.1131 21.3133 19.1165 21.316C19.5542 21.6555 20.032 21.8348 20.4987 21.8349H20.4989C21.4108 21.8349 22.137 21.1599 22.3485 20.1155L25.8159 2.99435C25.9551 2.30713 25.8384 1.6922 25.487 1.26266ZM8.09488 12.7247L16.5637 8.39825L11.2905 14.0015C11.204 14.0932 11.1428 14.2056 11.1127 14.3278L10.0959 18.4465L8.09488 12.7247ZM11.4217 19.528C11.3866 19.5602 11.3513 19.589 11.316 19.6156L12.2594 15.7948L13.9754 17.1766L11.4217 19.528ZM24.3802 2.70348L20.9128 19.8248C20.8795 19.9886 20.7728 20.3699 20.4987 20.3699C20.3633 20.3699 20.1932 20.2961 20.019 20.162L15.5566 16.5689C15.556 16.5684 15.5553 16.5678 15.5545 16.5674L12.8993 14.4293L20.5251 6.32629C20.7692 6.06689 20.7913 5.66959 20.5775 5.38464C20.3635 5.09968 19.9757 5.01003 19.6586 5.17216L7.11622 11.5797L2.66695 10.3067L23.8225 2.23103C24.0012 2.16274 24.1259 2.14844 24.199 2.14844C24.2438 2.14844 24.3235 2.15378 24.3531 2.19021C24.392 2.2377 24.4416 2.39964 24.3802 2.70348Z" fill="#437FC8"/>
</svg>
