<svg width="26" height="24" viewBox="0 0 26 24" fill="none" xmlns="http://www.w3.org/2000/svg">
<path d="M25.5986 0.896393C25.281 0.493057 24.8053 0.270996 24.259 0.270996C23.962 0.270996 23.6474 0.335884 23.3241 0.464218L1.31559 9.18867C0.147624 9.65153 -0.00967903 10.3461 0.000437535 10.719C0.0105541 11.0918 0.205546 11.7762 1.39692 12.1698C1.40406 12.1721 1.4112 12.1743 1.41835 12.1764L5.9835 13.5331L8.45234 20.8644C8.78897 21.8639 9.54454 22.4847 10.4245 22.4847C10.9793 22.4847 11.525 22.2433 12.0027 21.7868L14.8264 19.0869L18.922 22.5115C18.9224 22.5119 18.923 22.5121 18.9234 22.5125L18.9623 22.5451C18.9658 22.548 18.9696 22.5511 18.9732 22.5539C19.4284 22.9206 19.9253 23.1143 20.4107 23.1145H20.4109C21.3593 23.1145 22.1145 22.3854 22.3345 21.2574L25.9405 2.76661C26.0853 2.02441 25.9639 1.36029 25.5986 0.896393V0.896393ZM7.51071 13.2754L16.3183 8.60282L10.8341 14.6543C10.7442 14.7534 10.6806 14.8747 10.6492 15.0068L9.59175 19.455L7.51071 13.2754ZM10.9706 20.623C10.9341 20.6578 10.8974 20.6889 10.8607 20.7175L11.8418 16.591L13.6265 18.0835L10.9706 20.623ZM24.4474 2.45247L20.8414 20.9435C20.8067 21.1204 20.6958 21.5322 20.4107 21.5322C20.2699 21.5322 20.093 21.4525 19.9118 21.3077L15.2709 17.4272C15.2703 17.4266 15.2695 17.4259 15.2687 17.4255L12.5073 15.1163L20.4381 6.36511C20.692 6.08496 20.715 5.65588 20.4927 5.34812C20.2701 5.04037 19.8668 4.94355 19.5369 5.11864L6.4929 12.0388L1.86566 10.664L23.8674 1.94222C24.0533 1.86848 24.183 1.85303 24.259 1.85303C24.3056 1.85303 24.3885 1.8588 24.4193 1.89814C24.4597 1.94943 24.5113 2.12432 24.4474 2.45247V2.45247Z" fill="#6E6E6E"/>
</svg>
