<svg width="17" height="18" viewBox="0 0 17 18" fill="none" xmlns="http://www.w3.org/2000/svg">
<g clip-path="url(#clip0_88_677)">
<path d="M8.5 17.4771C6.48739 17.4771 4.53535 16.7819 3.00346 15.5195C2.64377 15.2233 2.30636 14.8948 2.00069 14.5434C0.710447 13.0585 0 11.1694 0 9.22388C0 7.01935 0.884133 4.9468 2.48957 3.38798C4.09501 1.82916 6.22954 0.970703 8.5 0.970703C10.7705 0.970703 12.905 1.82916 14.5104 3.38798C16.1159 4.9468 17 7.01935 17 9.22388C17 11.1694 16.2896 13.0585 14.9995 14.5432C14.6936 14.8948 14.3562 15.2233 13.9964 15.5196C12.4647 16.7819 10.5126 17.4771 8.5 17.4771ZM8.5 2.00235C4.39895 2.00235 1.0625 5.24192 1.0625 9.22388C1.0625 10.9263 1.68403 12.5791 2.8126 13.878C3.08022 14.1857 3.37576 14.4733 3.69086 14.7328C5.03107 15.8372 6.73894 16.4454 8.5 16.4454C10.2611 16.4454 11.9689 15.8372 13.309 14.7329C13.6242 14.4733 13.9198 14.1856 14.1876 13.8778C15.316 12.5792 15.9375 10.9263 15.9375 9.22388C15.9375 5.24192 12.6011 2.00235 8.5 2.00235Z" fill="#FC413C"/>
<path d="M8.5 9.22406C6.74239 9.22406 5.3125 7.83569 5.3125 6.12912C5.3125 4.42255 6.74239 3.03418 8.5 3.03418C10.2576 3.03418 11.6875 4.42255 11.6875 6.12912C11.6875 7.83569 10.2576 9.22406 8.5 9.22406ZM8.5 4.06583C7.32826 4.06583 6.375 4.99141 6.375 6.12912C6.375 7.26683 7.32826 8.19242 8.5 8.19242C9.67174 8.19242 10.625 7.26683 10.625 6.12912C10.625 4.99141 9.67174 4.06583 8.5 4.06583Z" fill="#FC413C"/>
<path d="M13.6532 15.6423C13.6104 15.6423 13.5669 15.6372 13.5234 15.6267C13.2389 15.5573 13.0661 15.2771 13.1375 15.0008C13.2329 14.6319 13.2812 14.2502 13.2812 13.8664C13.2812 11.3426 11.168 9.26059 8.56996 9.22435L8.5 9.22403L8.43004 9.22435C5.832 9.26059 3.71875 11.3426 3.71875 13.8664C3.71875 14.2502 3.76713 14.6319 3.86249 15.0008C3.93391 15.2771 3.76112 15.5573 3.47657 15.6267C3.19202 15.696 2.90338 15.5283 2.83196 15.2519C2.71535 14.801 2.65625 14.3348 2.65625 13.8664C2.65625 12.3648 3.25447 10.9494 4.34071 9.88074C5.42589 8.81318 6.87361 8.21372 8.41719 8.19277C8.41968 8.19274 8.42214 8.19274 8.42463 8.19274L8.5 8.19238L8.57537 8.19271C8.57786 8.19271 8.58032 8.19271 8.58281 8.19274C10.1264 8.21366 11.5741 8.81314 12.6593 9.88071C13.7455 10.9494 14.3438 12.3648 14.3438 13.8664C14.3438 14.3348 14.2846 14.801 14.168 15.2519C14.1075 15.4861 13.891 15.6423 13.6532 15.6423Z" fill="#FC413C"/>
</g>
<defs>
<clipPath id="clip0_88_677">
<rect width="17" height="16.5064" fill="white" transform="translate(0 0.970703)"/>
</clipPath>
</defs>
</svg>
