<svg width="15" height="15" viewBox="0 0 15 15" fill="none" xmlns="http://www.w3.org/2000/svg">
<path d="M14.9609 5.71381C14.8627 5.41008 14.5933 5.19435 14.2746 5.16563L9.94517 4.77251L8.2332 0.765492C8.10697 0.471829 7.81949 0.281738 7.50008 0.281738C7.18066 0.281738 6.89318 0.471829 6.76695 0.766179L5.05498 4.77251L0.724885 5.16563C0.406732 5.19504 0.138017 5.41008 0.0392524 5.71381C-0.0595127 6.01755 0.0316991 6.35069 0.272374 6.5607L3.5449 9.43072L2.57991 13.6815C2.50929 13.9941 2.6306 14.3171 2.88993 14.5046C3.02933 14.6053 3.19241 14.6566 3.35687 14.6566C3.49866 14.6566 3.63931 14.6183 3.76554 14.5428L7.50008 12.3108L11.2332 14.5428C11.5064 14.7072 11.8508 14.6922 12.1095 14.5046C12.369 14.3166 12.4902 13.9934 12.4196 13.6815L11.4546 9.43072L14.7271 6.56127C14.9678 6.35069 15.0597 6.01812 14.9609 5.71381Z" fill="#FFA800"/>
</svg>
