<svg width="27" height="27" viewBox="0 0 27 27" fill="none" xmlns="http://www.w3.org/2000/svg">
<g clip-path="url(#clip0_88_1754)">
<path d="M25.8654 9.39088C25.8656 6.94902 24.8717 4.6472 23.067 2.90933C21.2623 1.17146 18.8719 0.214355 16.3359 0.214355H10.6896C10.6894 0.214355 10.6894 0.214355 10.6894 0.214355C8.15385 0.214355 5.76329 1.17146 3.95879 2.90913C2.15408 4.6472 1.16016 6.94902 1.16016 9.39088V13.6648C1.16016 15.556 1.75919 17.375 2.89256 18.9257C3.89246 20.2936 5.23718 21.3622 6.805 22.0396V24.4945C6.805 25.7639 7.54308 26.2144 8.17506 26.2144C8.6266 26.2144 9.07814 25.9997 9.51773 25.5766L12.358 22.8416L16.3361 22.8414C18.8719 22.8414 21.2623 21.8843 23.067 20.1466C24.8717 18.4087 25.8656 16.1067 25.8656 13.6648L25.8654 9.39088ZM16.3361 21.3179L12.0304 21.3181C11.8205 21.3181 11.6195 21.3983 11.4712 21.5411L8.39919 24.4993C8.39527 24.5033 8.39115 24.507 8.38703 24.5108C8.38703 24.5054 8.38703 24.4999 8.38703 24.4945V21.5312C8.38703 21.2152 8.18454 20.9321 7.87802 20.8194C4.80624 19.6908 2.74239 16.8155 2.74239 13.6648V9.39088C2.74239 7.35587 3.57172 5.43649 5.07754 3.98625C6.58335 2.53641 8.57634 1.73779 10.6896 1.73779H16.3359C18.4492 1.73779 20.4424 2.53641 21.9482 3.98645C23.4542 5.43669 24.2836 7.35606 24.2834 9.39088L24.2836 13.6648C24.2834 17.8848 20.7182 21.3179 16.3361 21.3179Z" fill="#6E6E6E"/>
<path d="M15.6164 12.6727C15.3076 12.3752 14.8068 12.3752 14.4978 12.6727L13.8588 13.2879L11.3828 10.9037L12.0218 10.2886C12.1701 10.1458 12.2535 9.95198 12.2535 9.74985C12.2535 9.54791 12.1701 9.35411 12.0218 9.21129L9.02624 6.32668C8.87792 6.18385 8.67687 6.10352 8.46696 6.10352C8.25726 6.10352 8.05601 6.18385 7.90769 6.32668L5.81068 8.34602C4.67668 9.43802 4.67668 11.2152 5.81088 12.3078L12.4008 18.654C12.9488 19.1815 13.6794 19.4719 14.4579 19.4719C15.2365 19.4719 15.9672 19.1815 16.5151 18.654L18.6122 16.6349C18.7605 16.4918 18.8439 16.2982 18.8439 16.0961C18.8439 15.8942 18.7605 15.7004 18.6122 15.5576L15.6164 12.6727ZM15.3964 17.5765C15.1473 17.8163 14.814 17.9484 14.4579 17.9484C14.1017 17.9484 13.7684 17.8163 13.5194 17.5765L6.92963 11.2304C6.41218 10.7321 6.41197 9.92123 6.92943 9.42314L8.46696 7.94235L10.3438 9.74985L9.70478 10.365C9.55646 10.5078 9.47304 10.7016 9.47304 10.9035C9.47304 11.1057 9.55646 11.2993 9.70478 11.4423L13.2994 14.9037C13.6084 15.2011 14.1091 15.2013 14.4181 14.9037L15.0571 14.2886L16.9339 16.0959L15.3964 17.5765Z" fill="#6E6E6E"/>
<path d="M13.7048 3.58398C13.2679 3.58398 12.9138 3.92497 12.9138 4.3457C12.9138 4.76624 13.2679 5.10742 13.7048 5.10742C15.5151 5.10742 17.2172 5.78622 18.4973 7.01906C19.7775 8.25169 20.4824 9.89058 20.4824 11.634C20.4824 12.0545 20.8365 12.3957 21.2735 12.3957C21.7102 12.3957 22.0645 12.0547 22.0645 11.634C22.0645 9.48373 21.195 7.4622 19.616 5.94174C18.0371 4.42128 15.9378 3.58398 13.7048 3.58398Z" fill="#6E6E6E"/>
<path d="M17.0934 11.634C17.0934 12.0545 17.4477 12.3957 17.8844 12.3957C18.3214 12.3957 18.6755 12.0545 18.6755 11.634C18.6755 8.99475 16.4456 6.84766 13.7048 6.84766C13.2679 6.84766 12.9138 7.18864 12.9138 7.60938C12.9138 8.03011 13.2679 8.37109 13.7048 8.37109C15.5734 8.37109 17.0934 9.83482 17.0934 11.634Z" fill="#6E6E6E"/>
</g>
<defs>
<clipPath id="clip0_88_1754">
<rect width="27" height="26" fill="white" transform="translate(0 0.214355)"/>
</clipPath>
</defs>
</svg>
