<svg width="27" height="18" viewBox="0 0 27 18" fill="none" xmlns="http://www.w3.org/2000/svg">
<path d="M13.6631 17.1519C17.5691 17.1519 16.1764 14.6791 16.4779 13.9681C16.4734 13.4371 16.4689 12.9264 16.4869 12.6159C16.7344 12.6856 17.3182 12.9815 18.5243 14.1537C20.3861 16.0325 20.862 17.1519 22.3661 17.1519H25.1347C26.0122 17.1519 26.469 16.7885 26.6974 16.4836C26.9179 16.1889 27.1339 15.6714 26.8976 14.8659C26.28 12.9264 22.6777 9.57723 22.4539 9.22398C22.4876 9.15873 22.5416 9.07211 22.5697 9.02711H22.5675C23.2785 8.08773 25.992 4.02198 26.3914 2.39523C26.3925 2.39298 26.3936 2.38961 26.3936 2.38623C26.6096 1.64373 26.4116 1.16223 26.2069 0.889981C25.8986 0.482731 25.4081 0.276855 24.7455 0.276855H21.9769C21.0499 0.276855 20.3468 0.74373 19.9913 1.59536C19.3961 3.10848 17.7244 6.22023 16.4711 7.32161C16.4329 5.76123 16.4587 4.56986 16.479 3.68448C16.5195 1.95761 16.65 0.276855 14.8579 0.276855H10.5064C9.38363 0.276855 8.30925 1.50311 9.4725 2.95886C10.4895 4.23461 9.83812 4.94561 10.0575 8.48485C9.2025 7.56798 7.6815 5.09186 6.606 1.92723C6.3045 1.07111 5.84775 0.27798 4.56187 0.27798H1.79325C0.6705 0.27798 0 0.88998 0 1.91486C0 4.21661 5.09513 17.1519 13.6631 17.1519ZM4.56187 1.96548C4.806 1.96548 4.83075 1.96548 5.01188 2.47961C6.11325 5.72298 8.58375 10.5222 10.3883 10.5222C11.7439 10.5222 11.7439 9.13286 11.7439 8.60973L11.7428 4.44498C11.6685 3.06686 11.1668 2.38061 10.8371 1.96436L14.7836 1.96886C14.7859 1.98798 14.7611 6.57573 14.7949 7.68723C14.7949 9.2656 16.0481 10.1701 18.0045 8.19011C20.0689 5.86023 21.4965 2.37723 21.5539 2.23548C21.6383 2.03298 21.7114 1.96436 21.9769 1.96436H24.7455H24.7568C24.7556 1.96773 24.7556 1.97111 24.7545 1.97448C24.5014 3.15573 22.0028 6.91998 21.1669 8.08886C21.1534 8.10686 21.141 8.12598 21.1286 8.14511C20.7607 8.74586 20.4615 9.40961 21.1793 10.3434H21.1804C21.2456 10.4221 21.4155 10.6066 21.663 10.8631C22.4325 11.6574 25.0717 14.3731 25.3057 15.4531C25.1505 15.4779 24.9818 15.4599 22.3661 15.4655C21.8092 15.4655 21.3739 14.633 19.7122 12.9567C18.2183 11.5032 17.2485 10.9092 16.3654 10.9092C14.6509 10.9092 14.7758 12.3009 14.7915 13.9839C14.7971 15.8086 14.7859 15.2315 14.7983 15.3462C14.6981 15.3856 14.4113 15.4644 13.6631 15.4644C6.525 15.4644 1.8765 4.13448 1.69762 1.96886C1.7595 1.96323 2.61112 1.96661 4.56187 1.96548Z" fill="#6E6E6E"/>
</svg>
