<svg width="12" height="14" viewBox="0 0 12 14" fill="none" xmlns="http://www.w3.org/2000/svg">
<path d="M5.99997 0C2.90737 0 0.391357 2.51604 0.391357 5.60861V5.76365C0.391357 7.32771 1.28807 9.15034 3.05666 11.1808C4.33876 12.6528 5.60294 13.6791 5.6561 13.7221L5.99997 14L6.34385 13.7222C6.39703 13.6792 7.66121 12.6528 8.94328 11.1808C10.7118 9.15034 11.6086 7.32774 11.6086 5.76368V5.60864C11.6086 2.51604 9.09258 0 5.99997 0ZM10.5142 5.76368C10.5142 8.40686 7.10854 11.6065 5.99997 12.5778C4.8911 11.6062 1.48571 8.40667 1.48571 5.76368V5.60864C1.48571 3.11948 3.51081 1.09438 5.99997 1.09438C8.48913 1.09438 10.5142 3.11948 10.5142 5.60864V5.76368Z" fill="#437FC8"/>
</svg>
